<svg width="100" height="100" viewBox="0 0 100 100" fill="none" xmlns="http://www.w3.org/2000/svg">
<circle cx="50" cy="50" r="50" fill="#1E1E1E"/>
<path d="M68.9982 75.479C69.6802 74.9199 70.3206 74.3119 70.9143 73.6597C72.9189 71.4261 74.4062 68.7778 75.27 65.9035C76.5961 61.4761 76.6327 56.7625 75.3756 52.3151C74.5841 49.5899 73.2672 47.046 71.4989 44.8265C69.5707 42.4496 67.2563 40.4141 64.6526 38.8052C57.8764 34.9555 50.6418 31.9758 43.1199 29.9365C41.4664 29.4354 39.8229 28.9471 38.2026 28.4613C35.9186 27.7726 33.6347 27.0839 31.4124 26.3672C30.7156 26.1487 30.0217 25.9074 29.3378 25.6788C27.7455 25.1497 26.1917 24.5901 24.6762 24C24.9154 27.0285 25.2006 30.0625 25.6416 33.0558C26.1829 37.0718 27.0905 41.0297 28.353 44.8803C29.3399 47.7776 30.8072 50.4881 32.6935 52.8985C34.4621 55.1178 36.6477 56.9695 39.1274 58.3495C43.1818 60.568 47.7846 61.5849 52.3962 61.281C55.3908 61.0808 58.3044 60.2225 60.9292 58.7674C61.7016 58.3306 62.4415 57.8388 63.1431 57.2957C63.4117 57.0818 63.5625 56.9826 63.5625 56.9826C63.3887 57.0792 62.2359 57.7052 61.7504 57.8829C60.06 58.5716 58.2371 58.8742 56.4148 58.7687C53.7477 58.6423 51.1719 57.7577 48.9898 56.2188C46.6549 54.5144 44.9738 52.0621 44.2261 49.2697C47.5107 50.06 50.8032 50.6766 53.9321 51.4029C57.5975 52.1427 61.1671 53.2957 64.5726 54.8398C67.4932 56.1564 69.822 58.5088 71.1091 61.4425C72.115 63.9149 72.4018 66.6212 71.9364 69.2495C71.6323 71.0493 70.9303 72.7585 69.8815 74.2525C69.6125 74.6758 68.7477 75.6367 68.5992 75.8178C68.6504 75.777 68.7809 75.6522 68.9982 75.479ZM72.9384 60.8002C72.4247 59.0645 71.5808 57.4442 70.4531 56.0282C69.2311 54.5068 67.7568 53.2067 66.0945 52.1846C59.3288 48.0224 50.9471 46.3184 43.5423 43.794C43.4507 43.7673 43.3612 43.7339 43.2745 43.694C41.9501 43.2649 40.6768 42.7951 39.4319 42.2821C39.7338 44.3572 40.1985 46.4054 40.8217 48.4076C40.9055 48.6962 40.9891 48.985 41.0856 49.2634C41.7134 51.1113 42.6465 52.8409 43.846 54.3804C44.9734 55.799 46.3698 56.9809 47.9552 57.8584C50.0683 59.0118 52.4214 59.6563 54.8273 59.7408C54.0091 59.7995 53.1881 59.8116 52.3685 59.7769C48.1951 59.5677 44.1655 58.1846 40.7434 55.7866C36.7032 52.7996 33.9187 48.4165 32.9314 43.49C32.2678 40.5465 31.8475 37.5533 31.6746 34.5408C34.0431 35.0995 36.4065 35.5994 38.7367 36.0839C40.1914 36.3881 41.6232 36.6896 43.0294 37.0115C43.9049 37.1919 44.7676 37.3825 45.6175 37.5834C51.354 38.7441 56.9416 40.5468 62.2749 42.9573C66.8565 45.0198 70.5071 48.7129 72.5165 53.3181C74.0898 57.1893 74.5382 61.426 73.8102 65.5407C73.661 66.3474 73.4659 67.1449 73.2258 67.9294C73.6791 65.5625 73.5808 63.1229 72.9384 60.8002Z" fill="#FDFDFD"/>
<path d="M55.6624 63.1771C56.6368 62.8899 57.2499 62.7391 57.3703 62.7015C57.1907 62.6978 56.5913 62.7174 55.5721 62.7603C54.3975 62.7776 52.6838 62.8077 50.5765 62.6709C48.1082 62.5278 45.656 62.1799 43.2453 61.6308C40.3575 60.9973 37.5974 59.8809 35.0812 58.3289C32.5161 56.7367 30.4856 54.4141 29.2503 51.6593C28.3985 49.6484 27.826 47.5303 27.5487 45.364C26.4846 45.1865 25.433 44.974 24.4178 44.7286C22.5725 44.3051 20.7615 43.7442 19 43.0506C19.7263 47.1826 21.2311 51.139 23.4344 54.7093C25.7614 58.314 29.1362 61.12 33.1052 62.75C36.2766 64.0231 39.6549 64.7027 43.072 64.7548C45.6461 64.8256 48.221 64.6446 50.76 64.2144C52.4117 63.9575 54.0482 63.6112 55.6624 63.1771Z" fill="#FDFDFD"/>
</svg>
