<svg width="59" height="52" viewBox="0 0 59 52" fill="none" xmlns="http://www.w3.org/2000/svg">
<path d="M50.932 51.6612C51.614 51.1021 52.2544 50.4941 52.8481 49.8419C54.8527 47.6083 56.3399 44.9599 57.2038 42.0857C58.5298 37.6583 58.5665 32.9447 57.3093 28.4973C56.5179 25.7721 55.2009 23.2281 53.4327 21.0087C51.5045 18.6318 49.1901 16.5963 46.5864 14.9874C39.8102 11.1377 32.5755 8.15795 25.0537 6.11867C23.4002 5.61756 21.7567 5.12928 20.1364 4.64354C17.8524 3.95483 15.5685 3.2661 13.3461 2.54939C12.6494 2.33088 11.9554 2.08963 11.2715 1.86099C9.6793 1.3319 8.12543 0.772299 6.60993 0.182188C6.8492 3.21074 7.13434 6.24464 7.57538 9.23801C8.11668 13.2539 9.02427 17.2119 10.2868 21.0625C11.2737 23.9597 12.741 26.6703 14.6272 29.0807C16.3958 31.3 18.5815 33.1517 21.0611 34.5317C25.1156 36.7502 29.7183 37.7671 34.33 37.4632C37.3246 37.263 40.2381 36.4047 42.863 34.9496C43.6353 34.5128 44.3752 34.021 45.0769 33.4779C45.3455 33.264 45.4963 33.1648 45.4963 33.1648C45.3224 33.2614 44.1697 33.8874 43.6842 34.0651C41.9938 34.7537 40.1709 35.0564 38.3486 34.9509C35.6814 34.8245 33.1057 33.9399 30.9236 32.401C28.5887 30.6966 26.9076 28.2443 26.1599 25.4519C29.4444 26.2422 32.737 26.8588 35.8659 27.5851C39.5312 28.3249 43.1009 29.4779 46.5064 31.022C49.4269 32.3386 51.7558 34.691 53.0428 37.6247C54.0488 40.097 54.3356 42.8034 53.8702 45.4317C53.5661 47.2315 52.864 48.9407 51.8152 50.4346C51.5463 50.858 50.6815 51.8189 50.5329 52C50.5842 51.9592 50.7146 51.8344 50.932 51.6612ZM54.8722 36.9824C54.3584 35.2467 53.5146 33.6264 52.3869 32.2104C51.1649 30.689 49.6906 29.3888 48.0282 28.3668C41.2626 24.2046 32.8808 22.5006 25.4761 19.9762C25.3845 19.9495 25.2949 19.9161 25.2082 19.8762C23.8839 19.447 22.6105 18.9773 21.3657 18.4643C21.6675 20.5394 22.1322 22.5876 22.7555 24.5898C22.8392 24.8784 22.9229 25.1671 23.0193 25.4456C23.6472 27.2935 24.5802 29.0231 25.7797 30.5626C26.9071 31.9812 28.3036 33.1631 29.8889 34.0406C32.0021 35.194 34.3551 35.8385 36.7611 35.9229C35.9428 35.9817 35.1219 35.9938 34.3023 35.9591C30.1289 35.7499 26.0993 34.3668 22.6772 31.9688C18.637 28.9818 15.8524 24.5987 14.8652 19.6722C14.2016 16.7287 13.7812 13.7355 13.6084 10.723C15.9769 11.2817 18.3402 11.7816 20.6704 12.2661C22.1252 12.5703 23.557 12.8718 24.9632 13.1937C25.8387 13.3741 26.7014 13.5647 27.5513 13.7656C33.2877 14.9263 38.8753 16.7289 44.2086 19.1395C48.7903 21.202 52.4409 24.8951 54.4502 29.5003C56.0235 33.3715 56.472 37.6082 55.7439 41.7229C55.5948 42.5296 55.3997 43.3271 55.1596 44.1116C55.6129 41.7447 55.5145 39.3051 54.8722 36.9824Z" fill="#FDFDFD"/>
<path d="M37.5962 39.3593C38.5706 39.0721 39.1837 38.9213 39.304 38.8837C39.1244 38.88 38.525 38.8996 37.5059 38.9425C36.3313 38.9597 34.6175 38.9898 32.5103 38.8531C30.0419 38.71 27.5897 38.3621 25.179 37.813C22.2913 37.1794 19.5312 36.0631 17.0149 34.5111C14.4499 32.9189 12.4194 30.5963 11.1841 27.8415C10.3323 25.8306 9.75972 23.7125 9.48242 21.5462C8.41836 21.3686 7.36679 21.1562 6.35151 20.9107C4.50627 20.4873 2.6953 19.9264 0.93376 19.2328C1.6601 23.3648 3.1649 27.3212 5.36812 30.8915C7.69517 34.4962 11.07 37.3022 15.0389 38.9322C18.2103 40.2053 21.5887 40.8849 25.0057 40.9369C27.5799 41.0077 30.1548 40.8268 32.6937 40.3966C34.3454 40.1397 35.982 39.7934 37.5962 39.3593Z" fill="#FDFDFD"/>
</svg>
